<svg xmlns="http://www.w3.org/2000/svg" version="1.1" xmlns:xlink="http://www.w3.org/1999/xlink" width="512" height="512" x="0" y="0" viewBox="0 0 512 512" style="enable-background:new 0 0 512 512" xml:space="preserve" class=""><g><path d="M437.02 74.98C388.667 26.629 324.38 0 256 0S123.333 26.629 74.98 74.98C26.629 123.333 0 187.62 0 256s26.629 132.667 74.98 181.02C123.332 485.372 187.62 512 256 512s132.667-26.629 181.02-74.98C485.372 388.668 512 324.38 512 256s-26.629-132.667-74.98-181.02zm-40.676 188.258c-7.811 7.811-20.475 7.811-28.285 0L276 171.179v232.999c0 11.046-8.954 20-20 20s-20-8.954-20-20V171.179l-92.06 92.059c-3.905 3.905-9.024 5.858-14.142 5.858s-10.236-1.952-14.142-5.858c-7.811-7.811-7.811-20.474 0-28.284l126.202-126.201c7.81-7.811 20.472-7.811 28.285 0l126.201 126.201c7.811 7.811 7.811 20.474 0 28.284z" fill="#000000" opacity="1" data-original="#000000" class=""></path></g></svg>