<svg xmlns="http://www.w3.org/2000/svg" viewBox="0 0 48 48">
  <path d="M 0.015 17.232 L 0.015 24.233 L 8.984 32.608 L 0.015 40.984 L 0.015 47.985 L 7.549 47.985 L 24.007 32.608 L 7.549 17.232 L 0.015 17.232 Z M 20.83 22.731 L 27.185 22.731 L 40.466 10.321 L 40.466 3.32 L 32.939 3.32 L 24.008 11.658 L 15.076 3.32 L 7.549 3.32 L 7.549 10.321 Z M 7.549 0.008 L 0.098 0.008 L 0.098 10.276 L 7.549 3.32 Z" fill="rgb(255,255,255)"></path>
  <path d="M 48 17.232 L 40.466 17.232 L 24.007 32.608 L 40.466 47.985 L 48 47.985 L 48 40.984 L 39.031 32.608 L 48 24.233 Z M 47.917 0.008 L 40.466 0.008 L 40.466 3.32 L 47.917 10.276 Z M 14.948 47.985 L 33.067 47.985 L 24.008 39.527 Z M 29.145 0.008 L 18.869 0.008 L 24.007 4.808 Z" fill="rgb(255,255,255)"></path>
</svg>
