<svg xmlns="http://www.w3.org/2000/svg" version="1.1" xmlns:xlink="http://www.w3.org/1999/xlink" width="512" height="512" x="0" y="0" viewBox="0 0 100 100" style="enable-background:new 0 0 512 512" xml:space="preserve" class=""><g><path d="m96.422 7.477-3.9-3.899a3.68 3.68 0 0 0-5.205 0L50 40.895 12.683 3.578a3.68 3.68 0 0 0-5.206 0l-3.899 3.9a3.68 3.68 0 0 0 0 5.205L40.895 50 3.578 87.317a3.68 3.68 0 0 0 0 5.205l3.9 3.9a3.68 3.68 0 0 0 5.205 0L50 59.105l37.317 37.317a3.68 3.68 0 0 0 5.206 0l3.899-3.9a3.68 3.68 0 0 0 0-5.205L59.105 50l37.317-37.317a3.68 3.68 0 0 0 0-5.206z" fill="#000000" opacity="1" data-original="#000000" class=""></path></g></svg>