<svg xmlns="http://www.w3.org/2000/svg" version="1.1" xmlns:xlink="http://www.w3.org/1999/xlink" width="512" height="512" x="0" y="0" viewBox="0 0 24 24" style="enable-background:new 0 0 512 512" xml:space="preserve" class=""><g><path d="M23 24h-8a1 1 0 0 1-.966-1.259C14.625 20.538 16.667 19 19 19s4.375 1.538 4.966 3.741a.997.997 0 0 1-.173.868A.996.996 0 0 1 23 24Zm-4-6c-1.379 0-2.5-1.121-2.5-2.5S17.621 13 19 13s2.5 1.121 2.5 2.5S20.379 18 19 18Zm4.962-10.275L22.79 3.626A5.022 5.022 0 0 0 17.982 0H17v4a1 1 0 1 1-2 0V0H9v4a1 1 0 0 1-2 0V0h-.983a5.023 5.023 0 0 0-4.808 3.626L.039 7.725A1.02 1.02 0 0 0 0 8c0 2.206 1.794 4 4 4h1c1.2 0 2.266-.542 3-1.382.734.84 1.8 1.382 3 1.382h2a3.974 3.974 0 0 0 3-1.382A3.974 3.974 0 0 0 19 12h1c2.206 0 4-1.794 4-4a1.02 1.02 0 0 0-.038-.275ZM12.103 22.22c.481-1.794 1.659-3.256 3.192-4.176a4.473 4.473 0 0 1-.795-2.545c0-.652.146-1.268.396-1.827a5.87 5.87 0 0 1-1.896.327h-2a5.927 5.927 0 0 1-3-.819 5.927 5.927 0 0 1-3 .819H4a5.958 5.958 0 0 1-3-.812v6.812c0 2.206 1.794 4 4 4h7.192a3.003 3.003 0 0 1-.089-1.78Z" fill="#000000" opacity="1" data-original="#000000" class=""></path></g></svg>